<svg id="Layer_1" data-name="Layer 1" xmlns="http://www.w3.org/2000/svg" viewBox="0 0 365 322.8"><defs><style>.cls-1{fill:#30b14b;}.cls-2{fill:#fff;}</style></defs><title>icon</title><g id="_Group_" data-name="&lt;Group&gt;"><path id="_Path_" data-name="&lt;Path&gt;" class="cls-1" d="M420.17,241.33,279.9,101a42.13,42.13,0,0,0-59.67,0L79.88,241.33a42.13,42.13,0,0,0,0,59.67l99.83,99.83a36.19,36.19,0,0,0,25.44,10.57h90.68c7.65,0,18.44-4.43,23.87-9.86L420.17,301.07A42.35,42.35,0,0,0,420.17,241.33Z" transform="translate(-67.5 -88.6)"/><path id="_Path_2" data-name="&lt;Path&gt;" class="cls-2" d="M274.89,182.59l-21-21a5.51,5.51,0,0,0-7.79,0L140.19,267.48a5.53,5.53,0,0,0,0,7.79l16.22,16.22h17.44l101-101.11A5.51,5.51,0,0,0,274.89,182.59Z" transform="translate(-67.5 -88.6)"/><path id="_Path_3" data-name="&lt;Path&gt;" class="cls-2" d="M274.25,267.84l-21.08-21a5.53,5.53,0,0,0-7.79,0l-35.44,35.44-27.51,27.52a5.5,5.5,0,0,0,0,7.78L199,334.15h16.65l23.09-23.08,35.44-35.44A5.45,5.45,0,0,0,274.25,267.84Z" transform="translate(-67.5 -88.6)"/><path id="_Path_4" data-name="&lt;Path&gt;" class="cls-2" d="M274.75,353l-21-21a5.53,5.53,0,0,0-7.79,0l-11.14,11.15-9.51,9.5a5.53,5.53,0,0,0,0,7.79l16.29,16.29h17.15l15.94-15.93A5.45,5.45,0,0,0,274.75,353Z" transform="translate(-67.5 -88.6)"/></g></svg>